<?xml version="1.0" encoding="UTF-8" standalone="no"?>
<!-- Created with Inkscape (http://www.inkscape.org/) -->

<svg
   version="1.1"
   id="svg9408"
   width="880"
   height="880"
   viewBox="0 0 880 880"
   sodipodi:docname="woman-reading-book-publicdomainvectors.org.svg"
   inkscape:version="1.2 (dc2aedaf03, 2022-05-15)"
   xmlns:inkscape="http://www.inkscape.org/namespaces/inkscape"
   xmlns:sodipodi="http://sodipodi.sourceforge.net/DTD/sodipodi-0.dtd"
   xmlns="http://www.w3.org/2000/svg"
   xmlns:svg="http://www.w3.org/2000/svg">
  <defs
     id="defs9412">
    <clipPath
       clipPathUnits="userSpaceOnUse"
       id="clipPath9424">
      <path
         d="M 0,660 H 660 V 0 H 0 Z"
         id="path9422" />
    </clipPath>
  </defs>
  <sodipodi:namedview
     id="namedview9410"
     pagecolor="#ffffff"
     bordercolor="#000000"
     borderopacity="0.25"
     inkscape:showpageshadow="2"
     inkscape:pageopacity="0.0"
     inkscape:pagecheckerboard="0"
     inkscape:deskcolor="#d1d1d1"
     showgrid="false"
     inkscape:zoom="0.95113636"
     inkscape:cx="441.05137"
     inkscape:cy="440.52569"
     inkscape:window-width="1920"
     inkscape:window-height="1017"
     inkscape:window-x="-8"
     inkscape:window-y="-8"
     inkscape:window-maximized="1"
     inkscape:current-layer="g9416">
    <inkscape:page
       x="0"
       y="0"
       id="page9414"
       width="880"
       height="880" />
  </sodipodi:namedview>
  <g
     id="g9416"
     inkscape:groupmode="layer"
     inkscape:label="Page 1"
     transform="matrix(1.3333333,0,0,-1.3333333,0,880)">
    <g
       id="g9418">
      <g
         id="g9420"
         clip-path="url(#clipPath9424)">
        <g
           id="g9426"
           transform="translate(427.1807,318.5381)">
          <path
             d="m 0,0 c 14.771,-38.972 55.742,-169.055 -0.276,-207.368 -12.862,3.52 -3.264,0.893 -16.123,4.414 -44.556,11.779 8.592,20.611 0.302,35.752 -12.298,22.874 -11.147,50.89 -23.443,73.764 C -26.36,-62.291 -13.18,-31.145 0,0"
             style="fill:#f5ac00;fill-opacity:1;fill-rule:evenodd;stroke:none"
             id="path9428" />
        </g>
        <g
           id="g9430"
           transform="translate(216.9131,321.501)">
          <path
             d="m 0,0 c -52.57,-68.112 -52.171,-164.345 -30.787,-208.663 l 73.323,2.234 C 29.095,-141.677 10.257,-47.215 0,0"
             style="fill:#f5ac00;fill-opacity:1;fill-rule:evenodd;stroke:none"
             id="path9432" />
        </g>
        <g
           id="g9434"
           transform="translate(268.2588,309.6074)">
          <path
             d="M 0,0 74.528,104.732 4.182,156.047 -10.219,60.557 Z"
             style="fill:#1a1a1a;fill-opacity:1;fill-rule:evenodd;stroke:none"
             id="path9436" />
        </g>
        <g
           id="g9438"
           transform="translate(309.8291,352.4268)">
          <path
             d="m 0,0 -92.916,-30.926 25.113,-206.96 133.016,4.052 52.139,199.945 -62.345,18.775 z"
             style="fill:#cc3300;fill-opacity:1;fill-rule:evenodd;stroke:none"
             id="path9440" />
        </g>
        <g
           id="g9442"
           transform="translate(279.6592,400.5488)">
          <path
             d="M 0,0 2.994,-58.186 45.839,-99.464 61.3,-64.685 49.816,-13.712 Z"
             style="fill:#ffcc99;fill-opacity:1;fill-rule:evenodd;stroke:none"
             id="path9444" />
        </g>
        <g
           id="g9446"
           transform="translate(279.6592,400.5488)">
          <path
             d="m 0,0 1.265,-24.609 27.397,-19.076 c 4.149,-2.887 8.605,-4.81 13.211,-5.741 5.45,-1.099 10.858,-0.605 15.72,1.2 l -7.777,34.514 z"
             style="fill:#edb780;fill-opacity:1;fill-rule:evenodd;stroke:none"
             id="path9448" />
        </g>
        <g
           id="g9450"
           transform="translate(323.293,563.4722)">
          <path
             d="m 0,0 c 42.266,-3.976 73.305,-41.461 69.328,-83.725 -2.217,-23.57 -5.678,-20.191 -5.445,-43.509 1.003,-25.918 -14.566,-40.797 -21.848,-61.197 -4.824,-13.516 -18.619,-21.309 -32.685,-18.466 -4.61,0.931 -9.065,2.851 -13.213,5.739 -13.874,9.66 -27.747,19.322 -41.623,28.981 -10.715,7.463 -16.896,18.26 -17.899,31.281 -0.334,4.339 -0.67,8.681 -1.003,13.02 -13.828,15.405 -21.43,36.313 -19.337,58.547 C -79.75,-27.064 -42.264,3.976 0,0"
             style="fill:#ffcc99;fill-opacity:1;fill-rule:evenodd;stroke:none"
             id="path9452" />
        </g>
        <g
           id="g9454"
           transform="translate(378.9316,531.208)">
          <path
             d="m 0,0 c 10.193,-14.454 15.476,-32.474 13.69,-51.461 -0.187,-1.998 -0.385,-3.797 -0.586,-5.438 -1.686,19.32 -10.843,32 -24.664,40.534 -53.016,-29.092 -68.372,-78.651 -79.811,-130.34 l -9.754,6.792 c -10.715,7.463 -16.895,18.26 -17.898,31.281 -0.334,4.339 -0.67,8.681 -1.003,13.02 -13.828,15.405 -21.431,36.313 -19.337,58.547 0.132,1.417 0.307,2.82 0.513,4.212 l 75.709,48.179 z"
             style="fill:#edb780;fill-opacity:1;fill-rule:evenodd;stroke:none"
             id="path9456" />
        </g>
        <g
           id="g9458"
           transform="translate(391.1465,468.2021)">
          <path
             d="m 0,0 c -0.413,-2.426 -0.835,-4.419 -1.238,-6.223 l -18.7,-9.624 -3.102,8.418 z"
             style="fill:#333333;fill-opacity:1;fill-rule:evenodd;stroke:none"
             id="path9460" />
        </g>
        <g
           id="g9462"
           transform="translate(392.0352,474.3057)">
          <path
             d="M 0,0 C 0.245,22.955 -14.826,40.69 -26.181,44.868 -89.46,20.119 -129.693,-63.237 -123.776,-164.698 -230.528,48.424 -106.845,128.395 -42.914,82.07 -3.316,84.582 17.543,42.119 0,0"
             style="fill:#333333;fill-opacity:1;fill-rule:evenodd;stroke:none"
             id="path9464" />
        </g>
        <g
           id="g9466"
           transform="translate(341.2773,454.1006)">
          <path
             d="m 0,0 1.025,-8.901 -33.065,1.248 -13.744,-7.511 11.426,13.484 z"
             style="fill:#333333;fill-opacity:1;fill-rule:evenodd;stroke:none"
             id="path9468" />
        </g>
        <g
           id="g9470"
           transform="translate(339.418,436.1631)">
          <path
             d="M 0,0 C -17.432,-13.936 -28.335,-13.361 -35.539,-1.789 -25.107,6.023 -9.756,8.46 0,0"
             style="fill:#333333;fill-opacity:1;fill-rule:evenodd;stroke:none"
             id="path9472" />
        </g>
        <g
           id="g9474"
           transform="translate(370.5342,442.9658)">
          <path
             d="M 0,0 C 4.817,-9.104 17.945,-1.502 17.37,15.466 10.941,14.499 4.747,11.997 0,0"
             style="fill:#333333;fill-opacity:1;fill-rule:evenodd;stroke:none"
             id="path9476" />
        </g>
        <g
           id="g9478"
           transform="translate(345.8691,434.54)">
          <path
             d="M 0,0 C -17.432,-13.935 -28.336,-13.362 -35.539,-1.788 -25.107,6.024 -9.757,8.46 0,0"
             style="fill:#ffffff;fill-opacity:1;fill-rule:evenodd;stroke:none"
             id="path9480" />
        </g>
        <g
           id="g9482"
           transform="translate(321.0908,438.2871)">
          <path
             d="m 0,0 c 3.372,1.072 6.863,1.628 10.27,1.556 1.866,-1.453 2.974,-3.798 2.735,-6.327 -0.369,-3.939 -3.863,-6.831 -7.801,-6.46 -3.939,0.371 -6.832,3.864 -6.461,7.802 C -1.137,-2.15 -0.686,-0.981 0,0"
             style="fill:#2da3ca;fill-opacity:1;fill-rule:evenodd;stroke:none"
             id="path9484" />
        </g>
        <g
           id="g9486"
           transform="translate(368.1484,439.2119)">
          <path
             d="M 0,0 C 4.817,-9.104 17.945,-1.502 17.37,15.466 10.943,14.499 4.747,11.997 0,0"
             style="fill:#ffffff;fill-opacity:1;fill-rule:evenodd;stroke:none"
             id="path9488" />
        </g>
        <g
           id="g9490"
           transform="translate(377.3467,451.8779)">
          <path
             d="m 0,0 c -3.125,-1.99 -6.042,-5.341 -8.579,-11.179 1.158,-1.284 2.785,-2.155 4.641,-2.329 3.941,-0.371 7.432,2.522 7.803,6.46 C 4.148,-4.043 2.531,-1.297 0,0"
             style="fill:#2da3ca;fill-opacity:1;fill-rule:evenodd;stroke:none"
             id="path9492" />
        </g>
        <g
           id="g9494"
           transform="translate(373.4443,448.4658)">
          <path
             d="m 0,0 c -0.816,-0.942 -1.608,-2.031 -2.379,-3.289 0.149,-1.405 1.271,-2.557 2.733,-2.693 1.666,-0.158 3.145,1.067 3.3,2.733 C 3.813,-1.581 2.588,-0.103 0.92,0.054 0.606,0.084 0.294,0.064 0,0"
             style="fill:#333333;fill-opacity:1;fill-rule:evenodd;stroke:none"
             id="path9496" />
        </g>
        <g
           id="g9498"
           transform="translate(327.248,437.2051)">
          <path
             d="M 0,0 C 1.668,-0.156 2.893,-1.635 2.736,-3.302 2.578,-4.969 1.1,-6.193 -0.566,-6.036 -2.234,-5.88 -3.459,-4.401 -3.302,-2.734 -3.146,-1.067 -1.666,0.157 0,0"
             style="fill:#333333;fill-opacity:1;fill-rule:evenodd;stroke:none"
             id="path9500" />
        </g>
        <g
           id="g9502"
           transform="translate(375.8506,449.5986)">
          <path
             d="M 0,0 C 0.836,-0.078 1.448,-0.818 1.371,-1.655 1.292,-2.489 0.553,-3.103 -0.283,-3.024 -1.12,-2.945 -1.732,-2.205 -1.653,-1.369 -1.574,-0.534 -0.835,0.079 0,0"
             style="fill:#ffffff;fill-opacity:1;fill-rule:evenodd;stroke:none"
             id="path9504" />
        </g>
        <g
           id="g9506"
           transform="translate(328.7207,438.4746)">
          <path
             d="M 0,0 C 1.156,-0.109 2.008,-1.135 1.898,-2.293 1.788,-3.449 0.764,-4.3 -0.396,-4.191 -1.552,-4.083 -2.401,-3.056 -2.294,-1.897 -2.185,-0.741 -1.157,0.109 0,0"
             style="fill:#ffffff;fill-opacity:1;fill-rule:evenodd;stroke:none"
             id="path9508" />
        </g>
        <g
           id="g9510"
           transform="translate(365.5127,392.6748)">
          <path
             d="m 0,0 c 2.987,-16.923 -25.322,-18.968 -35.025,-7.86 10.667,2.7 11.957,7.843 20.128,8.805 1.886,0.222 4.744,-2.183 6.197,-1.652 1.665,0.61 2.778,2.814 4.51,2.954 C -2.531,2.381 -1.398,0.749 0,0"
             style="fill:#cc3300;fill-opacity:1;fill-rule:evenodd;stroke:none"
             id="path9512" />
        </g>
        <g
           id="g9514"
           transform="translate(508.4072,250.123)">
          <path
             d="M 0,0 -5.588,1.341 C -19.883,-7.28 -41.247,-1.056 -48.473,-24.522 -67.069,-7.469 -98.98,-9.567 -124.234,-2.09 l -11.545,-11.035 82.028,-32.78 z"
             style="fill:#c7e3f5;fill-opacity:1;fill-rule:evenodd;stroke:none"
             id="path9516" />
        </g>
        <g
           id="g9518"
           transform="translate(349.8809,402.4707)">
          <path
             d="M 0,0 C 10.342,-6.568 37.654,14.227 6.049,5.608 2.607,4.669 -1.352,3.81 0,0"
             style="fill:#e3a96f;fill-opacity:1;fill-rule:evenodd;stroke:none"
             id="path9520" />
        </g>
        <g
           id="g9522"
           transform="translate(279.707,136.1895)">
          <path
             d="M 0,0 96.89,110.978 180.405,78.943 235.083,118.559 108.597,-19.152 Z"
             style="fill:#497bad;fill-opacity:1;fill-rule:evenodd;stroke:none"
             id="path9524" />
        </g>
        <g
           id="g9526"
           transform="translate(428.9297,140.3311)">
          <path
             d="m 0,0 -8.663,11.505 c -2.39,-2.603 -4.78,-5.206 -7.17,-7.809 -10.085,-2.142 -19.249,-1.633 -30.203,2.689 -10.81,4.264 -15,-15.468 -7.204,-20.569 6.761,-4.42 6.328,-5.069 14.339,-7.234 6.519,-0.474 13.035,-0.943 19.553,-1.417 l 3.188,-0.639 C -5.324,-16.288 -0.333,-8.415 0,0"
             style="fill:#ffcc99;fill-opacity:1;fill-rule:evenodd;stroke:none"
             id="path9528" />
        </g>
        <g
           id="g9530"
           transform="translate(273.7246,550.4907)">
          <path
             d="m 0,0 c -27.567,-16.538 -35.692,-45.612 -40.96,-76.527 5.526,15.565 12.738,28.096 21.299,40.121 -5.751,-15.171 -12.009,-32.198 -12.871,-49.561 4.587,13.465 9.752,26.463 21.575,34.05 -7.835,-14.902 -12.254,-31.122 -14.246,-48.272 3.683,15.131 8.808,29.33 20.146,39.506 -7.25,-14.339 -9.609,-31.285 -10.114,-49.221 8.938,37.533 41.052,83.629 58.323,96.25 -15.844,-7.81 -24.777,-20.845 -33.881,-33.375 2.913,15.251 7.709,29.248 14.666,41.803 C 13.482,-15.303 6.128,-27.287 1.519,-40.961 1.942,-26.1 6.826,-13.963 15.342,-4.045 5.641,-12.441 -4.06,-20.837 -11.569,-31.255 -9.175,-19.488 -8.63,-11.599 0,0"
             style="fill:#666666;fill-opacity:1;fill-rule:evenodd;stroke:none"
             id="path9532" />
        </g>
      </g>
    </g>
  </g>
</svg>
